Coordinates
version=1
nRows=19
nColumns=36
inDegrees=yes

Units are S.I. units (second, meters, Newtons, ...)
If the header above contains a line with 'inDegrees', this indicates whether rotational values are in degrees (yes) or radians (no).

endheader
time	pelvis_tilt	pelvis_list	pelvis_rotation	pelvis_tx	pelvis_ty	pelvis_tz	hip_flexion_r	hip_adduction_r	hip_rotation_r	knee_angle_r	knee_angle_r_beta	ankle_angle_r	subtalar_angle_r	mtp_angle_r	hip_flexion_l	hip_adduction_l	hip_rotation_l	knee_angle_l	knee_angle_l_beta	ankle_angle_l	subtalar_angle_l	mtp_angle_l	lumbar_extension	lumbar_bending	lumbar_rotation	arm_flex_r	arm_add_r	arm_rot_r	elbow_flex_r	pro_sup_r	arm_flex_l	arm_add_l	arm_rot_l	elbow_flex_l	pro_sup_l
      0.00000000	     -9.59212098	     -0.84758808	     -6.43200213	     -0.09237069	      1.32379367	     -0.10171230	      5.65218887	      1.72759815	      5.66778599	      0.06845164	      0.00119471	      1.44128665	    -13.75517339	     -6.17102763	      4.73101601	     -2.92074996	      5.68274286	      0.22615318	      0.00394712	      3.96641184	     -7.79489017	     -6.17102763	     13.79106733	      1.97367356	      1.08897851	     -4.13948669	    -10.43669833	      6.45003989	     16.18274469	     88.59765778	     -6.11515122	     -9.05603286	      1.29628540	     16.17884387	     88.49092609
      0.01666670	     -9.30513945	     -0.88946448	     -6.57683355	     -0.09286192	      1.32250406	     -0.10228591	      5.23668712	      1.61804961	      6.86551420	      0.06833294	      0.00119263	      4.06836928	    -11.99661815	     -6.44424347	      4.19082659	     -3.06157596	      6.37549858	      0.22105738	      0.00385818	      4.38440778	     -7.89841313	     -6.44424347	     13.99646136	      1.99998619	      1.29678874	     -3.65330630	    -10.37423616	      7.76339078	     14.63885373	     88.89580904	     -6.14503986	     -8.87175124	      2.09609419	     14.79922068	     87.90183410
      0.03333330	     -8.58498278	     -1.27691889	     -6.98806132	     -0.09459714	      1.32155133	     -0.10232988	      4.29805434	      2.02458476	      7.67503817	      0.06983004	      0.00121876	      4.54778479	    -11.87039981	     -6.59698648	      3.09950279	     -3.41742960	      6.84681410	      0.19276728	      0.00336442	      4.06295395	     -8.67454361	     -6.59698648	     13.27678094	      2.53179829	      1.25185486	     -3.19161207	    -10.57196885	      8.36187453	     13.97464444	     88.08234832	     -5.48435341	     -8.65730029	      2.47186355	     14.18395343	     86.84618032
      0.05000000	     -7.96998948	     -1.42818028	     -6.93772067	     -0.09527762	      1.32499539	     -0.10284467	      3.53693672	      2.10242879	      7.38984355	      0.07185310	      0.00125407	      5.51109418	    -11.12288620	     -6.82561081	      2.40931447	     -3.53542246	      6.51305629	      0.19225119	      0.00335542	      4.21709803	     -8.15835362	     -6.82561081	     12.77605097	      2.57884959	      0.96223968	     -2.58127389	    -10.90363189	     11.53837382	     13.40900909	     90.16850326	     -5.11583852	     -8.91305952	      5.47759356	     13.68734027	     88.05190213
      0.06666670	     -7.14225945	     -1.48754187	     -7.12487996	     -0.09635732	      1.32858356	     -0.10295961	      2.57516416	      2.13702359	      7.74339908	      0.07416748	      0.00129447	      6.10570686	    -11.28974808	     -7.15558864	      1.50556779	     -3.49381863	      6.49423899	      0.19972415	      0.00348584	      4.01758279	     -8.70945139	     -7.15558864	     11.74187316	      2.56445731	      1.24987661	     -2.29919935	    -10.85948640	      9.57852836	     13.49934049	     95.74527214	     -4.89134144	     -8.90602271	      4.48563727	     14.08144008	     92.40210413
      0.08333330	     -6.63503424	     -1.44139075	     -7.21493490	     -0.09677685	      1.32886313	     -0.10303233	      1.95706744	      2.02254052	      7.82480124	      0.07703659	      0.00134454	      6.60496267	    -11.32491689	     -7.21290815	      0.95924694	     -3.40029589	      6.39532139	      0.21120436	      0.00368621	      3.78441957	     -8.78312748	     -7.21290815	     11.12623962	      2.43763978	      1.28325451	     -1.97478877	    -10.83377872	     10.63185908	     13.12335240	     94.46722160	     -4.35057129	     -8.96523619	      5.52899445	     13.66610223	     91.39752656
      0.10000000	     -6.11703958	     -1.40843494	     -7.32561961	     -0.09754703	      1.32575315	     -0.10301424	      1.37199533	      1.93585585	      7.88871093	      0.07916561	      0.00138170	      7.03197095	    -11.25186999	     -7.23934981	      0.45652204	     -3.31156979	      6.46542275	      0.22204267	      0.00387538	      3.62797805	     -9.08495395	     -7.23934981	     10.34224428	      2.29736589	      1.29810846	     -1.96646616	    -10.73576525	     11.03116152	     13.06832021	     92.96272599	     -3.83256626	     -8.98746845	      5.77517489	     13.64988220	     90.10841948
      0.11666670	     -5.73963083	     -1.36093230	     -7.36002715	     -0.09770417	      1.32627467	     -0.10291196	      0.91460758	      1.84826828	      8.16207164	      0.08120911	      0.00141737	      6.99566827	    -11.90527901	     -7.27288029	      0.13622117	     -3.22362681	      6.37320603	      0.23475493	      0.00409725	      3.50099790	     -9.01251844	     -7.27288029	      9.74192712	      2.16099600	      1.40993042	     -1.80488967	    -10.70459624	     12.46734464	     12.96619405	     93.29427450	     -2.98601073	     -9.16731292	      7.81191054	     13.21033739	     91.24110160
      0.13333330	     -5.41020532	     -1.34284268	     -7.38839194	     -0.09853396	      1.32980388	     -0.10285210	      0.49967989	      1.78296689	      8.27764285	      0.08301488	      0.00144888	      7.06380480	    -12.27234490	     -7.32292543	     -0.16960258	     -3.17432062	      6.31723156	      0.24254582	      0.00423322	      3.19470567	     -9.23731096	     -7.32292543	      9.22671980	      2.07919519	      1.50802074	     -1.63996088	    -10.57729695	     13.41257691	     12.91085657	     91.63235166	     -2.59937506	     -9.30374085	      8.94577986	     12.99825117	     90.22266315
      0.15000000	     -5.08024559	     -1.35333881	     -7.39839775	     -0.09870296	      1.32711404	     -0.10294763	      0.08824164	      1.73338280	      8.25865928	      0.08426597	      0.00147072	      7.15466561	    -12.39399511	     -7.35491510	     -0.53442825	     -3.16031271	      6.18529664	      0.25492333	      0.00444925	      2.94075355	     -9.30515970	     -7.35491510	      8.70976472	      2.04055310	      1.49517994	     -1.43200954	    -10.53868755	     14.06637965	     12.76696956	     91.67901924	     -2.05197318	     -9.39439267	     10.14895230	     12.38736832	     91.13427024
      0.16666670	     -4.66090106	     -1.36959056	     -7.47826426	     -0.09949309	      1.33099145	     -0.10278912	     -0.38535033	      1.68117897	      8.48148343	      0.08493694	      0.00148243	      7.18545653	    -12.60054364	     -7.39819926	     -1.00325304	     -3.14873298	      5.90974377	      0.26406114	      0.00460874	      2.74555649	     -9.21809758	     -7.39819926	      7.97900449	      1.97701103	      1.61621700	     -1.27607263	    -10.45086083	     15.27891412	     12.65676825	     88.36844711	     -1.37221994	     -9.42695135	     11.47947067	     12.25504550	     88.26526286
      0.18333330	     -4.24147176	     -1.43123092	     -7.45102307	     -0.09965176	      1.33158652	     -0.10300790	     -0.87128715	      1.66381684	      8.31556299	      0.08495325	      0.00148271	      7.18725284	    -12.51968301	     -7.40963201	     -1.47388699	     -3.17167432	      5.98239539	      0.27324627	      0.00476905	      2.31017361	     -9.72460632	     -7.40963201	      7.24661889	      2.00372518	      1.41467984	     -1.19183672	    -10.43243214	     15.44089369	     12.83463802	     87.19330081	     -1.00675153	     -9.43749061	     11.85353459	     12.32722925	     87.30770197
      0.20000000	     -4.08176373	     -1.43081816	     -7.53122773	     -0.10035959	      1.32799309	     -0.10298858	     -1.05435720	      1.63557410	      8.42834301	      0.08553925	      0.00149294	      7.07330966	    -12.74771212	     -7.45535916	     -1.63090759	     -3.16209220	      5.79025447	      0.28656277	      0.00500146	      2.12696686	     -9.76213624	     -7.45535916	      6.94773608	      1.96568748	      1.67291356	     -1.27623905	    -10.25767377	     12.12923736	     13.07678901	     95.51717940	     -0.55952759	     -9.46900868	     10.04981842	     12.30309046	     97.70213308
      0.21666670	     -3.96813726	     -1.45871045	     -7.60694523	     -0.10005515	      1.32824286	     -0.10286997	     -1.19439669	      1.63943669	      8.14966154	      0.08631135	      0.00150642	      7.17232173	    -12.31305746	     -7.45790345	     -1.78155757	     -3.19294985	      5.07536915	      0.29850828	      0.00520995	      2.35380439	     -8.87839705	     -7.45790345	      6.80747407	      2.00013304	      1.63643583	     -1.09565189	    -10.13339735	     12.32114693	     12.85941370	     94.43405624	     -0.32807062	     -9.40272618	     10.16722209	     11.97996623	     96.60381462
      0.23333330	     -3.63194104	     -1.53055014	     -7.49567192	     -0.10104616	      1.32523395	     -0.10314166	     -1.57772546	      1.64904318	      8.38452709	      0.08608215	      0.00150242	      6.94797550	    -12.90087590	     -7.46558651	     -2.12202582	     -3.22972317	      5.76739078	      0.31771202	      0.00554512	      1.72199133	    -10.13245848	     -7.46558651	      6.07768381	      1.96060215	      1.51901847	     -1.02233843	    -10.21696342	     13.38627893	     13.21726653	     92.86542352	      0.19751776	     -9.50908564	     11.37226020	     12.21170845	     95.13730018
      0.25000000	     -3.31498805	     -1.57433550	     -7.43572507	     -0.10092254	      1.32586727	     -0.10320704	     -1.92893604	      1.64310581	      8.32430673	      0.08646117	      0.00150903	      7.00608054	    -12.80240832	     -7.47878552	     -2.42991206	     -3.23611138	      5.75081830	      0.33789490	      0.00589738	      1.65581316	    -10.17242532	     -7.47878552	      5.47382327	      1.92829298	      1.59992560	     -1.07316835	    -10.20307759	     12.38123346	     13.54108828	     96.08141582	      0.94818744	     -9.58341186	     11.94169387	     12.37991729	     99.34301772
      0.26666670	     -3.16133288	     -1.65342853	     -7.36350844	     -0.10159366	      1.32946794	     -0.10332760	     -2.07670638	      1.71663330	      8.19549519	      0.08662084	      0.00151182	      6.99045965	    -12.63866957	     -7.48190015	     -2.54962884	     -3.30272115	      5.85983938	      0.35213099	      0.00614585	      1.57701675	    -10.37089485	     -7.48190015	      5.09274547	      1.97799722	      1.32969358	     -0.81453912	    -10.14546269	     12.95291999	     13.45623806	     94.73012098	      1.47718514	     -9.49060705	     12.47584768	     12.26617123	     97.85395247
      0.28333330	     -3.04750269	     -1.65537027	     -7.30868548	     -0.10140814	      1.32648583	     -0.10344157	     -2.18971429	      1.69946934	      8.18887068	      0.08670297	      0.00151325	      6.84545351	    -12.81524601	     -7.48510856	     -2.64198456	     -3.28573867	      5.87659531	      0.36858441	      0.00643301	      1.54893483	    -10.37675647	     -7.48510856	      4.83099521	      1.95132297	      1.15587928	     -0.70285144	    -10.19878919	     13.97484338	     13.49569065	     93.16870452	      2.07144553	     -9.56039994	     13.84554647	     12.25546759	     96.36927236
      0.30000000	     -2.79343483	     -1.75496678	     -7.23861719	     -0.10194775	      1.33013754	     -0.10351241	     -2.50232025	      1.79650931	      8.12487190	      0.08652435	      0.00151013	      6.82856721	    -12.74388397	     -7.49088954	     -2.88664580	     -3.37178277	      5.83901253	      0.38066820	      0.00664391	      1.50516448	    -10.22114284	     -7.49088954	      4.31463439	      2.00131088	      1.08417826	     -0.57756401	    -10.33199323	     15.26712270	     13.85134084	     94.30231251	      2.76349977	     -9.79868535	     16.68658186	     12.60753089	     97.77805509
